# xmcd
#
# Track frame offsets:
#	187
#	20337
#	39340
#	60347
#	86707
#	106282
#	125645
#	143845
#	161517
#
# Disc length: 2425 seconds
#
# Revision: 11
# Processed by: cddbd v1.5.2PL0 Copyright (c) Steve Scherf et al.
# Submitted via: EasyCDDAExtractor 15.3.0.1
#
DISCID=6d097709,71097809,7f097709
DTITLE=Madonna - True Blue
DYEAR=1986
DGENRE=Pop
TTITLE0=Papa Don't Preach
TTITLE1=Open Your Heart
TTITLE2=White Heat
TTITLE3=Live To Tell
TTITLE4=Where's The Party
TTITLE5=True Blue
TTITLE6=La Isla Bonita
TTITLE7=Jimmy Jimmy
TTITLE8=Love Makes The World Go Round
EXTD=
EXTT0=
EXTT1=
EXTT2=
EXTT3=
EXTT4=
EXTT5=
EXTT6=
EXTT7=
EXTT8=
PLAYORDER=
